# xmcd
#
# Track frame offsets: 
#        150
#        13127
#        27872
#        41586
#        57740
#        70026
#        81849
#        97668
#        116615
#        125579
#        141129
#        156684
#        172824
#        186408
#
# Disc length: 2867 seconds
#
# Revision: 2
# Processed by: cddbd v1.5.1PL0 Copyright (c) Steve Scherf et al.
# Submitted via: ExactAudioCopy v0.95b2
#
DISCID=c00b310e
DTITLE=Derailers - Reverb Deluxe
DYEAR=1997
DGENRE=Country
TTITLE0=Just One More Time
TTITLE1=Lover's Lie
TTITLE2=California Angel
TTITLE3=Can't Stop a Train
TTITLE4=I Don't Believe I'll Fall in Love (Today)
TTITLE5=Pawnshop Wedding Rings
TTITLE6=No One to Talk to But the Blues
TTITLE7=Dull Edge of the Blade
TTITLE8=Ellen
TTITLE9=Tears In Your Eyes
TTITLE10=It's Too Late
TTITLE11=You Don't Have to Go
TTITLE12=Painful Days and Sleepless Nights
TTITLE13=Come Back - Rasberry Beret
EXTD=
EXTT0=
EXTT1=
EXTT2=
EXTT3=
EXTT4=
EXTT5=
EXTT6=
EXTT7=
EXTT8=
EXTT9=
EXTT10=
EXTT11=
EXTT12=
EXTT13=
PLAYORDER=
